<svg width="176" height="51" viewBox="0 0 176 51" fill="none" xmlns="http://www.w3.org/2000/svg">
<rect x="1" y="1" width="174" height="49" stroke="white" stroke-width="2"/>
<path d="M49.2798 23.2898H47.1548C47.0942 22.9413 46.9825 22.6326 46.8196 22.3636C46.6567 22.0909 46.4541 21.8598 46.2116 21.6705C45.9692 21.4811 45.6927 21.339 45.3821 21.2443C45.0753 21.1458 44.7438 21.0966 44.3878 21.0966C43.7552 21.0966 43.1946 21.2557 42.706 21.5739C42.2173 21.8883 41.8348 22.3504 41.5582 22.9602C41.2817 23.5663 41.1435 24.3068 41.1435 25.1818C41.1435 26.072 41.2817 26.822 41.5582 27.4318C41.8385 28.0379 42.2211 28.4962 42.706 28.8068C43.1946 29.1136 43.7533 29.267 44.3821 29.267C44.7306 29.267 45.0563 29.2216 45.3594 29.1307C45.6662 29.036 45.9408 28.8977 46.1832 28.7159C46.4295 28.5341 46.6359 28.3106 46.8026 28.0455C46.973 27.7803 47.0904 27.4773 47.1548 27.1364L49.2798 27.1477C49.2003 27.7008 49.0279 28.2197 48.7628 28.7045C48.5014 29.1894 48.1586 29.6174 47.7344 29.9886C47.3101 30.3561 46.8139 30.6439 46.2457 30.8523C45.6776 31.0568 45.0469 31.1591 44.3537 31.1591C43.331 31.1591 42.4181 30.9223 41.6151 30.4489C40.812 29.9754 40.1795 29.2917 39.7173 28.3977C39.2552 27.5038 39.0241 26.4318 39.0241 25.1818C39.0241 23.928 39.2571 22.8561 39.723 21.9659C40.1889 21.072 40.8234 20.3883 41.6264 19.9148C42.4295 19.4413 43.3385 19.2045 44.3537 19.2045C45.0014 19.2045 45.6037 19.2955 46.1605 19.4773C46.7173 19.6591 47.2135 19.9261 47.6491 20.2784C48.0848 20.6269 48.4427 21.0549 48.723 21.5625C49.0071 22.0663 49.1927 22.642 49.2798 23.2898ZM54.9261 31.1705C54.0739 31.1705 53.3352 30.983 52.7102 30.608C52.0852 30.233 51.6004 29.7083 51.2557 29.0341C50.9148 28.3598 50.7443 27.572 50.7443 26.6705C50.7443 25.7689 50.9148 24.9792 51.2557 24.3011C51.6004 23.6231 52.0852 23.0966 52.7102 22.7216C53.3352 22.3466 54.0739 22.1591 54.9261 22.1591C55.7784 22.1591 56.517 22.3466 57.142 22.7216C57.767 23.0966 58.25 23.6231 58.5909 24.3011C58.9356 24.9792 59.108 25.7689 59.108 26.6705C59.108 27.572 58.9356 28.3598 58.5909 29.0341C58.25 29.7083 57.767 30.233 57.142 30.608C56.517 30.983 55.7784 31.1705 54.9261 31.1705ZM54.9375 29.5227C55.3996 29.5227 55.786 29.3958 56.0966 29.142C56.4072 28.8845 56.6383 28.5398 56.7898 28.108C56.9451 27.6761 57.0227 27.1951 57.0227 26.6648C57.0227 26.1307 56.9451 25.6477 56.7898 25.2159C56.6383 24.7803 56.4072 24.4337 56.0966 24.1761C55.786 23.9186 55.3996 23.7898 54.9375 23.7898C54.464 23.7898 54.0701 23.9186 53.7557 24.1761C53.4451 24.4337 53.2121 24.7803 53.0568 25.2159C52.9053 25.6477 52.8295 26.1307 52.8295 26.6648C52.8295 27.1951 52.9053 27.6761 53.0568 28.108C53.2121 28.5398 53.4451 28.8845 53.7557 29.142C54.0701 29.3958 54.464 29.5227 54.9375 29.5227ZM62.9105 25.8864V31H60.8537V22.2727H62.8196V23.7557H62.9219C63.1226 23.267 63.4427 22.8788 63.8821 22.5909C64.3253 22.303 64.8726 22.1591 65.5241 22.1591C66.1264 22.1591 66.651 22.2879 67.098 22.5455C67.5488 22.803 67.8973 23.1761 68.1435 23.6648C68.3935 24.1534 68.5166 24.7462 68.5128 25.4432V31H66.456V25.7614C66.456 25.178 66.3045 24.7216 66.0014 24.392C65.7022 24.0625 65.2874 23.8977 64.7571 23.8977C64.3973 23.8977 64.0772 23.9773 63.7969 24.1364C63.5204 24.2917 63.3026 24.517 63.1435 24.8125C62.9882 25.108 62.9105 25.4659 62.9105 25.8864ZM74.9616 22.2727V23.8636H69.9446V22.2727H74.9616ZM71.1832 20.1818H73.2401V28.375C73.2401 28.6515 73.2817 28.8636 73.3651 29.0114C73.4522 29.1553 73.5658 29.2538 73.706 29.3068C73.8461 29.3598 74.0014 29.3864 74.1719 29.3864C74.3007 29.3864 74.4181 29.3769 74.5241 29.358C74.634 29.339 74.7173 29.322 74.7741 29.3068L75.1207 30.9148C75.0109 30.9527 74.8537 30.9943 74.6491 31.0398C74.4484 31.0852 74.2022 31.1117 73.9105 31.1193C73.3954 31.1345 72.9313 31.0568 72.5185 30.8864C72.1056 30.7121 71.7779 30.4432 71.5355 30.0795C71.2969 29.7159 71.1795 29.2614 71.1832 28.7159V20.1818ZM79.1932 31.1761C78.6402 31.1761 78.142 31.0777 77.6989 30.8807C77.2595 30.6799 76.911 30.3845 76.6534 29.9943C76.3996 29.6042 76.2727 29.1231 76.2727 28.5511C76.2727 28.0587 76.3636 27.6515 76.5455 27.3295C76.7273 27.0076 76.9754 26.75 77.2898 26.5568C77.6042 26.3636 77.9583 26.2178 78.3523 26.1193C78.75 26.017 79.161 25.9432 79.5852 25.8977C80.0966 25.8447 80.5114 25.7973 80.8295 25.7557C81.1477 25.7102 81.3788 25.642 81.5227 25.5511C81.6705 25.4564 81.7443 25.3106 81.7443 25.1136V25.0795C81.7443 24.6515 81.6174 24.3201 81.3636 24.0852C81.1098 23.8504 80.7443 23.733 80.267 23.733C79.7633 23.733 79.3636 23.8428 79.0682 24.0625C78.7765 24.2822 78.5795 24.5417 78.4773 24.8409L76.5568 24.5682C76.7083 24.0379 76.9583 23.5947 77.3068 23.2386C77.6553 22.8788 78.0814 22.6098 78.5852 22.4318C79.089 22.25 79.6458 22.1591 80.2557 22.1591C80.6761 22.1591 81.0947 22.2083 81.5114 22.3068C81.928 22.4053 82.3087 22.5682 82.6534 22.7955C82.9981 23.0189 83.2746 23.3239 83.483 23.7102C83.6951 24.0966 83.8011 24.5795 83.8011 25.1591V31H81.8239V29.8011H81.7557C81.6307 30.0436 81.4545 30.2708 81.2273 30.483C81.0038 30.6913 80.7216 30.8598 80.3807 30.9886C80.0436 31.1136 79.6477 31.1761 79.1932 31.1761ZM79.7273 29.6648C80.1402 29.6648 80.4981 29.5833 80.8011 29.4205C81.1042 29.2538 81.3371 29.0341 81.5 28.7614C81.6667 28.4886 81.75 28.1913 81.75 27.8693V26.8409C81.6856 26.8939 81.5758 26.9432 81.4205 26.9886C81.2689 27.0341 81.0985 27.0739 80.9091 27.108C80.7197 27.142 80.5322 27.1723 80.3466 27.1989C80.161 27.2254 80 27.2481 79.8636 27.267C79.5568 27.3087 79.2822 27.3769 79.0398 27.4716C78.7973 27.5663 78.6061 27.6989 78.4659 27.8693C78.3258 28.036 78.2557 28.2519 78.2557 28.517C78.2557 28.8958 78.3939 29.1818 78.6705 29.375C78.947 29.5682 79.2992 29.6648 79.7273 29.6648ZM89.6761 31.1705C88.8049 31.1705 88.0568 30.9792 87.4318 30.5966C86.8106 30.214 86.3314 29.6856 85.9943 29.0114C85.661 28.3333 85.4943 27.553 85.4943 26.6705C85.4943 25.7841 85.6648 25.0019 86.0057 24.3239C86.3466 23.642 86.8277 23.1117 87.4489 22.733C88.0739 22.3504 88.8125 22.1591 89.6648 22.1591C90.3731 22.1591 91 22.2898 91.5455 22.5511C92.0947 22.8087 92.5322 23.1742 92.858 23.6477C93.1837 24.1174 93.3693 24.6667 93.4148 25.2955H91.4489C91.3693 24.875 91.1799 24.5246 90.8807 24.2443C90.5852 23.9602 90.1894 23.8182 89.6932 23.8182C89.2727 23.8182 88.9034 23.9318 88.5852 24.1591C88.267 24.3826 88.0189 24.7045 87.8409 25.125C87.6667 25.5455 87.5795 26.0492 87.5795 26.6364C87.5795 27.2311 87.6667 27.7424 87.8409 28.1705C88.0152 28.5947 88.2595 28.9223 88.5739 29.1534C88.892 29.3807 89.2652 29.4943 89.6932 29.4943C89.9962 29.4943 90.267 29.4375 90.5057 29.3239C90.7481 29.2064 90.9508 29.0379 91.1136 28.8182C91.2765 28.5985 91.3883 28.3314 91.4489 28.017H93.4148C93.3655 28.6345 93.1837 29.1818 92.8693 29.6591C92.5549 30.1326 92.1269 30.5038 91.5852 30.7727C91.0436 31.0379 90.4072 31.1705 89.6761 31.1705ZM99.4616 22.2727V23.8636H94.4446V22.2727H99.4616ZM95.6832 20.1818H97.7401V28.375C97.7401 28.6515 97.7817 28.8636 97.8651 29.0114C97.9522 29.1553 98.0658 29.2538 98.206 29.3068C98.3461 29.3598 98.5014 29.3864 98.6719 29.3864C98.8007 29.3864 98.9181 29.3769 99.0241 29.358C99.134 29.339 99.2173 29.322 99.2741 29.3068L99.6207 30.9148C99.5109 30.9527 99.3537 30.9943 99.1491 31.0398C98.9484 31.0852 98.7022 31.1117 98.4105 31.1193C97.8954 31.1345 97.4313 31.0568 97.0185 30.8864C96.6056 30.7121 96.2779 30.4432 96.0355 30.0795C95.7969 29.7159 95.6795 29.2614 95.6832 28.7159V20.1818ZM114.804 19.3636V31H112.929L107.446 23.0739H107.349V31H105.241V19.3636H107.128L112.605 27.2955H112.707V19.3636H114.804ZM120.817 31.1705C119.964 31.1705 119.226 30.983 118.601 30.608C117.976 30.233 117.491 29.7083 117.146 29.0341C116.805 28.3598 116.635 27.572 116.635 26.6705C116.635 25.7689 116.805 24.9792 117.146 24.3011C117.491 23.6231 117.976 23.0966 118.601 22.7216C119.226 22.3466 119.964 22.1591 120.817 22.1591C121.669 22.1591 122.408 22.3466 123.033 22.7216C123.658 23.0966 124.141 23.6231 124.482 24.3011C124.826 24.9792 124.999 25.7689 124.999 26.6705C124.999 27.572 124.826 28.3598 124.482 29.0341C124.141 29.7083 123.658 30.233 123.033 30.608C122.408 30.983 121.669 31.1705 120.817 31.1705ZM120.828 29.5227C121.29 29.5227 121.677 29.3958 121.987 29.142C122.298 28.8845 122.529 28.5398 122.68 28.108C122.836 27.6761 122.913 27.1951 122.913 26.6648C122.913 26.1307 122.836 25.6477 122.68 25.2159C122.529 24.7803 122.298 24.4337 121.987 24.1761C121.677 23.9186 121.29 23.7898 120.828 23.7898C120.355 23.7898 119.961 23.9186 119.646 24.1761C119.336 24.4337 119.103 24.7803 118.947 25.2159C118.796 25.6477 118.72 26.1307 118.72 26.6648C118.72 27.1951 118.796 27.6761 118.947 28.108C119.103 28.5398 119.336 28.8845 119.646 29.142C119.961 29.3958 120.355 29.5227 120.828 29.5227ZM128.295 31L125.83 22.2727H127.926L129.46 28.4091H129.54L131.108 22.2727H133.182L134.75 28.375H134.835L136.347 22.2727H138.449L135.977 31H133.835L132.199 25.1023H132.08L130.443 31H128.295Z" fill="white"/>
</svg>
