<svg width="566" height="160" viewBox="0 0 566 160" fill="none" xmlns="http://www.w3.org/2000/svg">
<path d="M0.570313 -1.43051e-06H8.79688L21.3359 21.8203H21.8516L34.3906 -1.43051e-06H42.6172L25.2031 29.1562V48H17.9844V29.1562L0.570313 -1.43051e-06ZM58.127 48.7266C54.752 48.7266 51.8066 47.9531 49.291 46.4062C46.7754 44.8594 44.8223 42.6953 43.4316 39.9141C42.041 37.1328 41.3457 33.8828 41.3457 30.1641C41.3457 26.4297 42.041 23.1641 43.4316 20.3672C44.8223 17.5703 46.7754 15.3984 49.291 13.8516C51.8066 12.3047 54.752 11.5313 58.127 11.5313C61.502 11.5313 64.4473 12.3047 66.9629 13.8516C69.4785 15.3984 71.4316 17.5703 72.8223 20.3672C74.2129 23.1641 74.9082 26.4297 74.9082 30.1641C74.9082 33.8828 74.2129 37.1328 72.8223 39.9141C71.4316 42.6953 69.4785 44.8594 66.9629 46.4062C64.4473 47.9531 61.502 48.7266 58.127 48.7266ZM58.1504 42.8438C60.3379 42.8438 62.1504 42.2656 63.5879 41.1094C65.0254 39.9531 66.0879 38.4141 66.7754 36.4922C67.4785 34.5703 67.8301 32.4531 67.8301 30.1406C67.8301 27.8437 67.4785 25.7344 66.7754 23.8125C66.0879 21.875 65.0254 20.3203 63.5879 19.1484C62.1504 17.9766 60.3379 17.3906 58.1504 17.3906C55.9473 17.3906 54.1191 17.9766 52.666 19.1484C51.2285 20.3203 50.1582 21.875 49.4551 23.8125C48.7676 25.7344 48.4238 27.8437 48.4238 30.1406C48.4238 32.4531 48.7676 34.5703 49.4551 36.4922C50.1582 38.4141 51.2285 39.9531 52.666 41.1094C54.1191 42.2656 55.9473 42.8438 58.1504 42.8438ZM105.535 33.0703V12H112.566V48H105.676V41.7656H105.301C104.473 43.6875 103.145 45.2891 101.316 46.5703C99.5039 47.8359 97.2461 48.4688 94.543 48.4688C92.2305 48.4688 90.1836 47.9609 88.4023 46.9453C86.6367 45.9141 85.2461 44.3906 84.2305 42.375C83.2305 40.3594 82.7305 37.8672 82.7305 34.8984V12H89.7383V34.0547C89.7383 36.5078 90.418 38.4609 91.7773 39.9141C93.1367 41.3672 94.9023 42.0937 97.0742 42.0937C98.3867 42.0937 99.6914 41.7656 100.988 41.1094C102.301 40.4531 103.387 39.4609 104.246 38.1328C105.121 36.8047 105.551 35.1172 105.535 33.0703ZM152.926 48.7031C150.02 48.7031 147.426 47.9609 145.145 46.4766C142.879 44.9766 141.098 42.8437 139.801 40.0781C138.52 37.2969 137.879 33.9609 137.879 30.0703C137.879 26.1797 138.527 22.8516 139.824 20.0859C141.137 17.3203 142.934 15.2031 145.215 13.7344C147.496 12.2656 150.082 11.5313 152.973 11.5313C155.207 11.5313 157.004 11.9062 158.363 12.6562C159.738 13.3906 160.801 14.25 161.551 15.2344C162.316 16.2187 162.91 17.0859 163.332 17.8359H163.754V-1.43051e-06H170.762V48H163.918V42.3984H163.332C162.91 43.1641 162.301 44.0391 161.504 45.0234C160.723 46.0078 159.645 46.8672 158.27 47.6016C156.895 48.3359 155.113 48.7031 152.926 48.7031ZM154.473 42.7266C156.488 42.7266 158.191 42.1953 159.582 41.1328C160.988 40.0547 162.051 38.5625 162.77 36.6562C163.504 34.75 163.871 32.5312 163.871 30C163.871 27.5 163.512 25.3125 162.793 23.4375C162.074 21.5625 161.02 20.1016 159.629 19.0547C158.238 18.0078 156.52 17.4844 154.473 17.4844C152.363 17.4844 150.605 18.0312 149.199 19.125C147.793 20.2187 146.73 21.7109 146.012 23.6016C145.309 25.4922 144.957 27.625 144.957 30C144.957 32.4062 145.316 34.5703 146.035 36.4922C146.754 38.4141 147.816 39.9375 149.223 41.0625C150.645 42.1719 152.395 42.7266 154.473 42.7266ZM195.928 48.7266C192.553 48.7266 189.607 47.9531 187.092 46.4062C184.576 44.8594 182.623 42.6953 181.232 39.9141C179.842 37.1328 179.146 33.8828 179.146 30.1641C179.146 26.4297 179.842 23.1641 181.232 20.3672C182.623 17.5703 184.576 15.3984 187.092 13.8516C189.607 12.3047 192.553 11.5313 195.928 11.5313C199.303 11.5313 202.248 12.3047 204.764 13.8516C207.279 15.3984 209.232 17.5703 210.623 20.3672C212.014 23.1641 212.709 26.4297 212.709 30.1641C212.709 33.8828 212.014 37.1328 210.623 39.9141C209.232 42.6953 207.279 44.8594 204.764 46.4062C202.248 47.9531 199.303 48.7266 195.928 48.7266ZM195.951 42.8438C198.139 42.8438 199.951 42.2656 201.389 41.1094C202.826 39.9531 203.889 38.4141 204.576 36.4922C205.279 34.5703 205.631 32.4531 205.631 30.1406C205.631 27.8437 205.279 25.7344 204.576 23.8125C203.889 21.875 202.826 20.3203 201.389 19.1484C199.951 17.9766 198.139 17.3906 195.951 17.3906C193.748 17.3906 191.92 17.9766 190.467 19.1484C189.029 20.3203 187.959 21.875 187.256 23.8125C186.568 25.7344 186.225 27.8437 186.225 30.1406C186.225 32.4531 186.568 34.5703 187.256 36.4922C187.959 38.4141 189.029 39.9531 190.467 41.1094C191.92 42.2656 193.748 42.8438 195.951 42.8438ZM227.539 26.625V48H220.531V12H227.258V17.8594H227.703C228.531 15.9531 229.828 14.4219 231.594 13.2656C233.375 12.1094 235.617 11.5313 238.32 11.5313C240.773 11.5313 242.922 12.0469 244.766 13.0781C246.609 14.0937 248.039 15.6094 249.055 17.625C250.07 19.6406 250.578 22.1328 250.578 25.1016V48H243.57V25.9453C243.57 23.3359 242.891 21.2969 241.531 19.8281C240.172 18.3437 238.305 17.6016 235.93 17.6016C234.305 17.6016 232.859 17.9531 231.594 18.6562C230.344 19.3594 229.352 20.3906 228.617 21.75C227.898 23.0937 227.539 24.7187 227.539 26.625ZM266 -1.43051e-06V4.5C266 5.82812 265.75 7.22656 265.25 8.69531C264.766 10.1484 264.078 11.5469 263.188 12.8906C262.297 14.2344 261.25 15.3906 260.047 16.3594L256.578 13.875C257.5 12.5312 258.297 11.1016 258.969 9.58594C259.656 8.07031 260 6.39844 260 4.57031V-1.43051e-06H266ZM290.961 12V17.625H271.297V12H290.961ZM276.57 3.375H283.578V37.4297C283.578 38.7891 283.781 39.8125 284.188 40.5C284.594 41.1719 285.117 41.6328 285.758 41.8828C286.414 42.1172 287.125 42.2344 287.891 42.2344C288.453 42.2344 288.945 42.1953 289.367 42.1172C289.789 42.0391 290.117 41.9766 290.352 41.9297L291.617 47.7187C291.211 47.875 290.633 48.0313 289.883 48.1875C289.133 48.3594 288.195 48.4531 287.07 48.4688C285.227 48.5 283.508 48.1719 281.914 47.4844C280.32 46.7969 279.031 45.7344 278.047 44.2969C277.063 42.8594 276.57 41.0547 276.57 38.8828V3.375ZM323.188 26.625V48H316.18V-1.43051e-06H323.094V17.8594H323.539C324.383 15.9219 325.672 14.3828 327.406 13.2422C329.141 12.1016 331.406 11.5313 334.203 11.5313C336.672 11.5313 338.828 12.0391 340.672 13.0547C342.531 14.0703 343.969 15.5859 344.984 17.6016C346.016 19.6016 346.531 22.1016 346.531 25.1016V48H339.523V25.9453C339.523 23.3047 338.844 21.2578 337.484 19.8047C336.125 18.3359 334.234 17.6016 331.813 17.6016C330.156 17.6016 328.672 17.9531 327.359 18.6562C326.063 19.3594 325.039 20.3906 324.289 21.75C323.555 23.0937 323.188 24.7187 323.188 26.625ZM366.359 48.7969C364.078 48.7969 362.016 48.375 360.172 47.5312C358.328 46.6719 356.867 45.4297 355.789 43.8047C354.727 42.1797 354.195 40.1875 354.195 37.8281C354.195 35.7969 354.586 34.125 355.367 32.8125C356.148 31.5 357.203 30.4609 358.531 29.6953C359.859 28.9297 361.344 28.3516 362.984 27.9609C364.625 27.5703 366.297 27.2734 368 27.0703C370.156 26.8203 371.906 26.6172 373.25 26.4609C374.594 26.2891 375.57 26.0156 376.18 25.6406C376.789 25.2656 377.094 24.6562 377.094 23.8125V23.6484C377.094 21.6016 376.516 20.0156 375.359 18.8906C374.219 17.7656 372.516 17.2031 370.25 17.2031C367.891 17.2031 366.031 17.7266 364.672 18.7734C363.328 19.8047 362.398 20.9531 361.883 22.2188L355.297 20.7187C356.078 18.5312 357.219 16.7656 358.719 15.4219C360.234 14.0625 361.977 13.0781 363.945 12.4687C365.914 11.8437 367.984 11.5313 370.156 11.5313C371.594 11.5313 373.117 11.7031 374.727 12.0469C376.352 12.375 377.867 12.9844 379.273 13.875C380.695 14.7656 381.859 16.0391 382.766 17.6953C383.672 19.3359 384.125 21.4688 384.125 24.0938V48H377.281V43.0781H377C376.547 43.9844 375.867 44.875 374.961 45.75C374.055 46.625 372.891 47.3516 371.469 47.9297C370.047 48.5078 368.344 48.7969 366.359 48.7969ZM367.883 43.1719C369.82 43.1719 371.477 42.7891 372.852 42.0234C374.242 41.2578 375.297 40.2578 376.016 39.0234C376.75 37.7734 377.117 36.4375 377.117 35.0156V30.375C376.867 30.625 376.383 30.8594 375.664 31.0781C374.961 31.2812 374.156 31.4609 373.25 31.6172C372.344 31.7578 371.461 31.8906 370.602 32.0156C369.742 32.125 369.023 32.2187 368.445 32.2969C367.086 32.4687 365.844 32.7578 364.719 33.1641C363.609 33.5703 362.719 34.1562 362.047 34.9219C361.391 35.6719 361.062 36.6719 361.062 37.9219C361.062 39.6562 361.703 40.9687 362.984 41.8594C364.266 42.7344 365.898 43.1719 367.883 43.1719ZM422.967 12L409.912 48H402.412L389.334 12H396.857L405.975 39.7031H406.35L415.443 12H422.967ZM443.844 48.7266C440.297 48.7266 437.242 47.9688 434.68 46.4531C432.133 44.9219 430.164 42.7734 428.773 40.0078C427.398 37.2266 426.711 33.9687 426.711 30.2344C426.711 26.5469 427.398 23.2969 428.773 20.4844C430.164 17.6719 432.102 15.4766 434.586 13.8984C437.086 12.3203 440.008 11.5313 443.352 11.5313C445.383 11.5313 447.352 11.8672 449.258 12.5391C451.164 13.2109 452.875 14.2656 454.391 15.7031C455.906 17.1406 457.102 19.0078 457.977 21.3047C458.852 23.5859 459.289 26.3594 459.289 29.625V32.1094H430.672V26.8594H452.422C452.422 25.0156 452.047 23.3828 451.297 21.9609C450.547 20.5234 449.492 19.3906 448.133 18.5625C446.789 17.7344 445.211 17.3203 443.398 17.3203C441.43 17.3203 439.711 17.8047 438.242 18.7734C436.789 19.7266 435.664 20.9766 434.867 22.5234C434.086 24.0547 433.695 25.7187 433.695 27.5156V31.6172C433.695 34.0234 434.117 36.0703 434.961 37.7578C435.82 39.4453 437.016 40.7344 438.547 41.625C440.078 42.5 441.867 42.9375 443.914 42.9375C445.242 42.9375 446.453 42.75 447.547 42.375C448.641 41.9844 449.586 41.4062 450.383 40.6406C451.18 39.875 451.789 38.9297 452.211 37.8047L458.844 39C458.313 40.9531 457.359 42.6641 455.984 44.1328C454.625 45.5859 452.914 46.7187 450.852 47.5312C448.805 48.3281 446.469 48.7266 443.844 48.7266ZM501.336 12V17.625H481.672V12H501.336ZM486.945 3.375H493.953V37.4297C493.953 38.7891 494.156 39.8125 494.563 40.5C494.969 41.1719 495.492 41.6328 496.133 41.8828C496.789 42.1172 497.5 42.2344 498.266 42.2344C498.828 42.2344 499.32 42.1953 499.742 42.1172C500.164 42.0391 500.492 41.9766 500.727 41.9297L501.992 47.7187C501.586 47.875 501.008 48.0313 500.258 48.1875C499.508 48.3594 498.57 48.4531 497.445 48.4688C495.602 48.5 493.883 48.1719 492.289 47.4844C490.695 46.7969 489.406 45.7344 488.422 44.2969C487.438 42.8594 486.945 41.0547 486.945 38.8828V3.375ZM523.865 48.7266C520.49 48.7266 517.545 47.9531 515.029 46.4062C512.514 44.8594 510.561 42.6953 509.17 39.9141C507.779 37.1328 507.084 33.8828 507.084 30.1641C507.084 26.4297 507.779 23.1641 509.17 20.3672C510.561 17.5703 512.514 15.3984 515.029 13.8516C517.545 12.3047 520.49 11.5313 523.865 11.5313C527.24 11.5313 530.186 12.3047 532.701 13.8516C535.217 15.3984 537.17 17.5703 538.561 20.3672C539.951 23.1641 540.646 26.4297 540.646 30.1641C540.646 33.8828 539.951 37.1328 538.561 39.9141C537.17 42.6953 535.217 44.8594 532.701 46.4062C530.186 47.9531 527.24 48.7266 523.865 48.7266ZM523.889 42.8438C526.076 42.8438 527.889 42.2656 529.326 41.1094C530.764 39.9531 531.826 38.4141 532.514 36.4922C533.217 34.5703 533.568 32.4531 533.568 30.1406C533.568 27.8437 533.217 25.7344 532.514 23.8125C531.826 21.875 530.764 20.3203 529.326 19.1484C527.889 17.9766 526.076 17.3906 523.889 17.3906C521.686 17.3906 519.857 17.9766 518.404 19.1484C516.967 20.3203 515.896 21.875 515.193 23.8125C514.506 25.7344 514.162 27.8437 514.162 30.1406C514.162 32.4531 514.506 34.5703 515.193 36.4922C515.896 38.4141 516.967 39.9531 518.404 41.1094C519.857 42.2656 521.686 42.8438 523.889 42.8438ZM3.17187 145V97H34.9531V105.367H13.3203V116.805H32.8438V125.172H13.3203V145H3.17187ZM41.5918 145V109H51.5762V145H41.5918ZM46.6074 104.359C45.123 104.359 43.8496 103.867 42.7871 102.883C41.7402 101.883 41.2168 100.687 41.2168 99.2969C41.2168 97.9219 41.7402 96.7422 42.7871 95.7578C43.8496 94.7578 45.123 94.2578 46.6074 94.2578C48.0918 94.2578 49.3574 94.7578 50.4043 95.7578C51.4668 96.7422 51.998 97.9219 51.998 99.2969C51.998 100.687 51.4668 101.883 50.4043 102.883C49.3574 103.867 48.0918 104.359 46.6074 104.359ZM75.793 159.25C72.5586 159.25 69.7852 158.805 67.4727 157.914C65.1758 157.039 63.3477 155.844 61.9883 154.328C60.6289 152.813 59.7461 151.109 59.3398 149.219L68.5742 147.977C68.8555 148.695 69.3008 149.367 69.9102 149.992C70.5195 150.617 71.3242 151.117 72.3242 151.492C73.3398 151.883 74.5742 152.078 76.0273 152.078C78.1992 152.078 79.9883 151.547 81.3945 150.484C82.8164 149.438 83.5273 147.68 83.5273 145.211V138.625H83.1055C82.668 139.625 82.0117 140.57 81.1367 141.461C80.2617 142.352 79.1367 143.078 77.7617 143.641C76.3867 144.203 74.7461 144.484 72.8398 144.484C70.1367 144.484 67.6758 143.859 65.457 142.609C63.2539 141.344 61.4961 139.414 60.1836 136.82C58.8867 134.211 58.2383 130.914 58.2383 126.93C58.2383 122.852 58.9023 119.445 60.2305 116.711C61.5586 113.977 63.3242 111.93 65.5273 110.57C67.7461 109.211 70.1758 108.531 72.8164 108.531C74.832 108.531 76.5195 108.875 77.8789 109.563C79.2383 110.234 80.332 111.078 81.1602 112.094C82.0039 113.094 82.6523 114.078 83.1055 115.047H83.4805V109H93.3945V145.352C93.3945 148.414 92.6445 150.977 91.1445 153.039C89.6445 155.102 87.5664 156.648 84.9102 157.68C82.2695 158.727 79.2305 159.25 75.793 159.25ZM76.0039 136.984C77.6133 136.984 78.9727 136.586 80.082 135.789C81.207 134.977 82.0664 133.82 82.6602 132.32C83.2695 130.805 83.5742 128.992 83.5742 126.883C83.5742 124.773 83.2773 122.945 82.6836 121.398C82.0898 119.836 81.2305 118.625 80.1055 117.766C78.9805 116.906 77.6133 116.477 76.0039 116.477C74.3633 116.477 72.9805 116.922 71.8555 117.812C70.7305 118.687 69.8789 119.906 69.3008 121.469C68.7227 123.031 68.4336 124.836 68.4336 126.883C68.4336 128.961 68.7227 130.758 69.3008 132.273C69.8945 133.773 70.7461 134.937 71.8555 135.766C72.9805 136.578 74.3633 136.984 76.0039 136.984ZM111.324 124.188V145H101.34V97H111.043V115.352H111.465C112.277 113.227 113.59 111.562 115.402 110.359C117.215 109.141 119.488 108.531 122.223 108.531C124.723 108.531 126.902 109.078 128.762 110.172C130.637 111.25 132.09 112.805 133.121 114.836C134.168 116.852 134.684 119.266 134.668 122.078V145H124.684V123.859C124.699 121.641 124.137 119.914 122.996 118.68C121.871 117.445 120.293 116.828 118.262 116.828C116.902 116.828 115.699 117.117 114.652 117.695C113.621 118.273 112.809 119.117 112.215 120.227C111.637 121.32 111.34 122.641 111.324 124.188ZM161.674 109V116.5H139.994V109H161.674ZM144.916 100.375H154.9V133.937C154.9 134.859 155.041 135.578 155.322 136.094C155.604 136.594 155.994 136.945 156.494 137.148C157.01 137.352 157.604 137.453 158.275 137.453C158.744 137.453 159.213 137.414 159.682 137.336C160.15 137.242 160.51 137.172 160.76 137.125L162.33 144.555C161.83 144.711 161.127 144.891 160.221 145.094C159.314 145.313 158.213 145.445 156.916 145.492C154.51 145.586 152.4 145.266 150.588 144.531C148.791 143.797 147.393 142.656 146.393 141.109C145.393 139.562 144.9 137.609 144.916 135.25V100.375ZM202.602 109V116.5H180.922V109H202.602ZM185.844 100.375H195.828V133.937C195.828 134.859 195.969 135.578 196.25 136.094C196.531 136.594 196.922 136.945 197.422 137.148C197.938 137.352 198.531 137.453 199.203 137.453C199.672 137.453 200.141 137.414 200.609 137.336C201.078 137.242 201.438 137.172 201.688 137.125L203.258 144.555C202.758 144.711 202.055 144.891 201.148 145.094C200.242 145.313 199.141 145.445 197.844 145.492C195.438 145.586 193.328 145.266 191.516 144.531C189.719 143.797 188.32 142.656 187.32 141.109C186.32 139.562 185.828 137.609 185.844 135.25V100.375ZM219.863 124.188V145H209.879V97H219.582V115.352H220.004C220.816 113.227 222.129 111.562 223.941 110.359C225.754 109.141 228.027 108.531 230.762 108.531C233.262 108.531 235.441 109.078 237.301 110.172C239.176 111.25 240.629 112.805 241.66 114.836C242.707 116.852 243.223 119.266 243.207 122.078V145H233.223V123.859C233.238 121.641 232.676 119.914 231.535 118.68C230.41 117.445 228.832 116.828 226.801 116.828C225.441 116.828 224.238 117.117 223.191 117.695C222.16 118.273 221.348 119.117 220.754 120.227C220.176 121.32 219.879 122.641 219.863 124.188ZM267.471 145.703C263.768 145.703 260.58 144.953 257.908 143.453C255.252 141.937 253.205 139.797 251.768 137.031C250.33 134.25 249.611 130.961 249.611 127.164C249.611 123.461 250.33 120.211 251.768 117.414C253.205 114.617 255.229 112.437 257.838 110.875C260.463 109.312 263.541 108.531 267.072 108.531C269.447 108.531 271.658 108.914 273.705 109.68C275.768 110.43 277.564 111.562 279.096 113.078C280.643 114.594 281.846 116.5 282.705 118.797C283.564 121.078 283.994 123.75 283.994 126.812V129.555H253.596V123.367H274.596C274.596 121.93 274.283 120.656 273.658 119.547C273.033 118.437 272.166 117.57 271.057 116.945C269.963 116.305 268.689 115.984 267.236 115.984C265.721 115.984 264.377 116.336 263.205 117.039C262.049 117.727 261.143 118.656 260.486 119.828C259.83 120.984 259.494 122.273 259.479 123.695V129.578C259.479 131.359 259.807 132.898 260.463 134.195C261.135 135.492 262.08 136.492 263.299 137.195C264.518 137.898 265.963 138.25 267.635 138.25C268.744 138.25 269.76 138.094 270.682 137.781C271.604 137.469 272.393 137 273.049 136.375C273.705 135.75 274.205 134.984 274.549 134.078L283.783 134.688C283.314 136.906 282.354 138.844 280.9 140.5C279.463 142.141 277.604 143.422 275.322 144.344C273.057 145.25 270.439 145.703 267.471 145.703ZM290.51 145V109H300.025V115.352H300.447C301.197 113.242 302.447 111.578 304.197 110.359C305.947 109.141 308.041 108.531 310.479 108.531C312.947 108.531 315.049 109.148 316.783 110.383C318.518 111.602 319.674 113.258 320.252 115.352H320.627C321.361 113.289 322.689 111.641 324.611 110.406C326.549 109.156 328.838 108.531 331.479 108.531C334.838 108.531 337.564 109.602 339.658 111.742C341.768 113.867 342.822 116.883 342.822 120.789V145H332.861V122.758C332.861 120.758 332.33 119.258 331.268 118.258C330.205 117.258 328.877 116.758 327.283 116.758C325.471 116.758 324.057 117.336 323.041 118.492C322.025 119.633 321.518 121.141 321.518 123.016V145H311.838V122.547C311.838 120.781 311.33 119.375 310.314 118.328C309.314 117.281 307.994 116.758 306.354 116.758C305.244 116.758 304.244 117.039 303.354 117.602C302.479 118.148 301.783 118.922 301.268 119.922C300.752 120.906 300.494 122.062 300.494 123.391V145H290.51ZM374.445 145H363.57L380.141 97H393.219L409.766 145H398.891L386.867 107.969H386.492L374.445 145ZM373.766 126.133H399.453V134.055H373.766V126.133ZM425.34 97V145H415.355V97H425.34ZM449.604 145.703C445.963 145.703 442.814 144.93 440.158 143.383C437.518 141.82 435.479 139.648 434.041 136.867C432.604 134.07 431.885 130.828 431.885 127.141C431.885 123.422 432.604 120.172 434.041 117.391C435.479 114.594 437.518 112.422 440.158 110.875C442.814 109.312 445.963 108.531 449.604 108.531C453.244 108.531 456.385 109.312 459.025 110.875C461.682 112.422 463.729 114.594 465.166 117.391C466.604 120.172 467.322 123.422 467.322 127.141C467.322 130.828 466.604 134.07 465.166 136.867C463.729 139.648 461.682 141.82 459.025 143.383C456.385 144.93 453.244 145.703 449.604 145.703ZM449.65 137.969C451.307 137.969 452.689 137.5 453.799 136.563C454.908 135.609 455.744 134.312 456.307 132.672C456.885 131.031 457.174 129.164 457.174 127.07C457.174 124.977 456.885 123.109 456.307 121.469C455.744 119.828 454.908 118.531 453.799 117.578C452.689 116.625 451.307 116.148 449.65 116.148C447.979 116.148 446.572 116.625 445.432 117.578C444.307 118.531 443.455 119.828 442.877 121.469C442.314 123.109 442.033 124.977 442.033 127.07C442.033 129.164 442.314 131.031 442.877 132.672C443.455 134.312 444.307 135.609 445.432 136.563C446.572 137.5 447.979 137.969 449.65 137.969ZM483.799 124.188V145H473.814V109H483.33V115.352H483.752C484.549 113.258 485.885 111.602 487.76 110.383C489.635 109.148 491.908 108.531 494.58 108.531C497.08 108.531 499.26 109.078 501.119 110.172C502.979 111.266 504.424 112.828 505.455 114.859C506.486 116.875 507.002 119.281 507.002 122.078V145H497.018V123.859C497.033 121.656 496.471 119.937 495.33 118.703C494.189 117.453 492.619 116.828 490.619 116.828C489.275 116.828 488.088 117.117 487.057 117.695C486.041 118.273 485.244 119.117 484.666 120.227C484.104 121.32 483.814 122.641 483.799 124.188ZM531.277 145.703C527.574 145.703 524.387 144.953 521.715 143.453C519.059 141.937 517.012 139.797 515.574 137.031C514.137 134.25 513.418 130.961 513.418 127.164C513.418 123.461 514.137 120.211 515.574 117.414C517.012 114.617 519.035 112.437 521.645 110.875C524.27 109.312 527.348 108.531 530.879 108.531C533.254 108.531 535.465 108.914 537.512 109.68C539.574 110.43 541.371 111.562 542.902 113.078C544.449 114.594 545.652 116.5 546.512 118.797C547.371 121.078 547.801 123.75 547.801 126.812V129.555H517.402V123.367H538.402C538.402 121.93 538.09 120.656 537.465 119.547C536.84 118.437 535.973 117.57 534.863 116.945C533.77 116.305 532.496 115.984 531.043 115.984C529.527 115.984 528.184 116.336 527.012 117.039C525.855 117.727 524.949 118.656 524.293 119.828C523.637 120.984 523.301 122.273 523.285 123.695V129.578C523.285 131.359 523.613 132.898 524.27 134.195C524.941 135.492 525.887 136.492 527.105 137.195C528.324 137.898 529.77 138.25 531.441 138.25C532.551 138.25 533.566 138.094 534.488 137.781C535.41 137.469 536.199 137 536.855 136.375C537.512 135.75 538.012 134.984 538.355 134.078L547.59 134.688C547.121 136.906 546.16 138.844 544.707 140.5C543.27 142.141 541.41 143.422 539.129 144.344C536.863 145.25 534.246 145.703 531.277 145.703ZM560.152 145.609C558.605 145.609 557.277 145.063 556.168 143.969C555.074 142.859 554.527 141.531 554.527 139.984C554.527 138.453 555.074 137.141 556.168 136.047C557.277 134.953 558.605 134.406 560.152 134.406C561.652 134.406 562.965 134.953 564.09 136.047C565.215 137.141 565.777 138.453 565.777 139.984C565.777 141.016 565.512 141.961 564.98 142.82C564.465 143.664 563.785 144.344 562.941 144.859C562.098 145.359 561.168 145.609 560.152 145.609Z" fill="white"/>
</svg>
